<svg width="21" height="20" viewBox="0 0 21 20" fill="fff" xmlns="http://www.w3.org/2000/svg">
<path d="M10.5 15C10.7833 15 11.021 14.904 11.213 14.712C11.4043 14.5207 11.5 14.2833 11.5 14V9.975C11.5 9.69167 11.4043 9.45833 11.213 9.275C11.021 9.09167 10.7833 9 10.5 9C10.2167 9 9.97933 9.09567 9.788 9.287C9.596 9.479 9.5 9.71667 9.5 10V14.025C9.5 14.3083 9.596 14.5417 9.788 14.725C9.97933 14.9083 10.2167 15 10.5 15ZM10.5 7C10.7833 7 11.021 6.904 11.213 6.712C11.4043 6.52067 11.5 6.28333 11.5 6C11.5 5.71667 11.4043 5.479 11.213 5.287C11.021 5.09567 10.7833 5 10.5 5C10.2167 5 9.97933 5.09567 9.788 5.287C9.596 5.479 9.5 5.71667 9.5 6C9.5 6.28333 9.596 6.52067 9.788 6.712C9.97933 6.904 10.2167 7 10.5 7ZM10.5 20C9.11667 20 7.81667 19.7373 6.6 19.212C5.38333 18.6873 4.325 17.975 3.425 17.075C2.525 16.175 1.81267 15.1167 1.288 13.9C0.762667 12.6833 0.5 11.3833 0.5 10C0.5 8.61667 0.762667 7.31667 1.288 6.1C1.81267 4.88333 2.525 3.825 3.425 2.925C4.325 2.025 5.38333 1.31233 6.6 0.787C7.81667 0.262333 9.11667 0 10.5 0C11.8833 0 13.1833 0.262333 14.4 0.787C15.6167 1.31233 16.675 2.025 17.575 2.925C18.475 3.825 19.1873 4.88333 19.712 6.1C20.2373 7.31667 20.5 8.61667 20.5 10C20.5 11.3833 20.2373 12.6833 19.712 13.9C19.1873 15.1167 18.475 16.175 17.575 17.075C16.675 17.975 15.6167 18.6873 14.4 19.212C13.1833 19.7373 11.8833 20 10.5 20Z" fill="white"/>
</svg>
